<svg width="32" height="32" viewBox="0 0 32 32" fill="none" xmlns="http://www.w3.org/2000/svg">
  <rect width="32" height="32" rx="8" fill="#FFFFFF" />
  <path d="M16 6C10.4772 6 6 10.4772 6 16C6 21.5228 10.4772 26 16 26C21.5228 26 26 21.5228 26 16C26 10.4772 21.5228 6 16 6ZM16 8C20.4183 8 24 11.5817 24 16C24 20.4183 20.4183 24 16 24C11.5817 24 8 20.4183 8 16C8 11.5817 11.5817 8 16 8Z" fill="#3B82F6" />
  <path d="M20.7071 12.7071C21.0976 12.3166 21.0976 11.6834 20.7071 11.2929C20.3166 10.9024 19.6834 10.9024 19.2929 11.2929L14 16.5858L12.7071 15.2929C12.3166 14.9024 11.6834 14.9024 11.2929 15.2929C10.9024 15.6834 10.9024 16.3166 11.2929 16.7071L13.2929 18.7071C13.6834 19.0976 14.3166 19.0976 14.7071 18.7071L20.7071 12.7071Z" fill="#3B82F6" />
</svg>